<?xml version="1.0" encoding="UTF-8"?>
<svg width="91px" height="167px" viewBox="0 0 91 167" version="1.1" xmlns="http://www.w3.org/2000/svg" xmlns:xlink="http://www.w3.org/1999/xlink">
    <title>Page 1</title>
    <g id="Page-1" stroke="none" stroke-width="1" fill="none" fill-rule="evenodd">
        <rect id="Rectangle" fill="#9F6800" x="41" y="9" width="9" height="158"></rect>
        <polygon id="Triangle" fill="#9F6800" points="45.5 0 51 9 40 9"></polygon>
        <circle id="Oval" fill="#FF8585" cx="45.5" cy="124.5" r="22.5"></circle>
        <circle id="Oval" fill="#AFFD98" cx="45.5" cy="79.5" r="22.5"></circle>
        <circle id="Oval" fill="#FEFF8C" cx="45.5" cy="34.5" r="22.5"></circle>
        <polygon id="Rectangle" fill="#9F6800" points="66.1640625 43.2054443 90.5 54.671875 90.5 58 64.9055176 45.9233398"></polygon>
        <polygon id="Rectangle" fill="#9F6800" points="1.13686838e-13 13 25.2696533 24.4741211 24.2320557 27.2412109 1.13686838e-13 16.2583008"></polygon>
        <polygon id="Rectangle" fill="#9F6800" points="1.13686838e-13 103 25.2521973 114.896301 24.1013184 117.628845 1.13686838e-13 106.258301"></polygon>
        <polygon id="Rectangle" fill="#9F6800" points="66.1709595 133.196777 90.5 144.671875 90.5 148 64.7839355 135.866455"></polygon>
        <polygon id="Rectangle" fill="#9F6800" transform="translate(78.064331, 65.207947) scale(-1, 1) translate(-78.064331, -65.207947) " points="65.6286621 58 90.5 69.6905518 89.2547607 72.4158936 65.6286621 61.2583008"></polygon>
        <polygon id="Rectangle" fill="#9F6800" transform="translate(13.055481, 95.516876) scale(-1, 1) translate(-13.055481, -95.516876) " points="1.40197754 88.0337524 26.1109619 99.671875 26.1109619 103 6.82121026e-13 90.6585693"></polygon>
    </g>
</svg>