<?xml version="1.0" encoding="UTF-8"?>
<svg width="89px" height="167px" viewBox="0 0 89 167" version="1.1" xmlns="http://www.w3.org/2000/svg" xmlns:xlink="http://www.w3.org/1999/xlink">
    <title>Combined Shape</title>
    <g id="Page-1" stroke="none" stroke-width="1" fill="none" fill-rule="evenodd">
        <path d="M39,9 L44.5,0 L50,9 L49,9 L48.999572,12.4499946 C59.2698667,14.5345457 67,23.6145382 67,34.5 C67,37.751122 66.3104595,40.8411932 65.0696472,43.6319447 L88.5,54.671875 L88.5,58 L63.6708052,46.2844161 C60.4631051,51.4915778 55.193255,55.2928799 48.999572,56.5500054 L48.999572,57.4499946 C55.7910719,58.8284584 61.4717947,63.2659307 64.5409731,69.2616443 L88.5,58 L88.5,61.2583008 L65.7243138,72.0130461 C66.5505143,74.3552004 67,76.8751087 67,79.5 C67,90.3854618 59.2698667,99.4654543 48.999572,101.550005 L48.999572,102.449995 C59.2698667,104.534546 67,113.614538 67,124.5 C67,127.747616 66.3119458,130.834529 65.0736594,133.622915 L88.5,144.671875 L88.5,148 L63.6708052,136.284416 C60.4631051,141.491578 55.193255,145.29288 48.999572,146.550005 L49,167 L40,167 L39.9994288,146.549803 C29.7296319,144.464865 22,135.385109 22,124.5 C22,121.947378 22.4250757,119.494038 23.2083029,117.206903 L1.10134124e-13,106.258301 L1.10134124e-13,103 L24.3522732,114.472933 C27.3951548,108.370582 33.1288361,103.84504 39.9994288,102.450197 L39.9994288,101.549803 C33.7272289,100.276443 28.4025264,96.3939725 25.2075372,91.084607 L6.75015599e-13,103 L6.75015599e-13,99.671875 L23.845976,88.4397465 C22.6583205,85.6995803 22,82.6766696 22,79.5 C22,68.6148912 29.7296319,59.5351347 39.9994288,57.4501975 L39.9994288,56.5498025 C29.7296319,54.4648653 22,45.3851088 22,34.5 C22,31.8088595 22.4724611,29.2280681 23.338962,26.8360472 L1.17239551e-13,16.2583008 L1.17239551e-13,13 L24.5239281,24.1358388 C27.607717,18.2041873 33.2559581,13.8192326 39.9994288,12.4501975 L40,9 L39,9 Z" id="Combined-Shape" fill="#B87070"></path>
    </g>
</svg>