<?xml version="1.0" encoding="UTF-8"?>
<svg width="59px" height="80px" viewBox="0 0 59 80" version="1.1" xmlns="http://www.w3.org/2000/svg" xmlns:xlink="http://www.w3.org/1999/xlink">
    <title>Page 1</title>
    <defs>
        <path d="M6.97631836,48.1481792 C6.23792567,46.4445957 5.06022321,42.5827352 4.3203125,42.0697353 C3.20451303,41.2961216 20.5362863,53.9852295 29.0046491,53.9852295 C39.5306553,53.9852295 53.1865234,42.965077 54.1635742,42.0697353 C54.6906686,41.5867209 53.7278593,43.6128689 51.2751465,48.1481792 C48.45409,54.8545571 48.45409,61.368733 50.1040248,62.9533025 C51.7539596,64.5378721 39.5491916,67 29.0313721,67 C18.5135525,67 6.35888672,63.7273717 8,62.1167446 C9.64111328,60.5061175 10.3442383,55.9184793 6.97631836,48.1481792 Z" id="path-1"></path>
        <filter x="-4.0%" y="-8.0%" width="108.0%" height="116.0%" filterUnits="objectBoundingBox" id="filter-2">
            <feGaussianBlur stdDeviation="1.5" in="SourceAlpha" result="shadowBlurInner1"></feGaussianBlur>
            <feOffset dx="0" dy="1" in="shadowBlurInner1" result="shadowOffsetInner1"></feOffset>
            <feComposite in="shadowOffsetInner1" in2="SourceAlpha" operator="arithmetic" k2="-1" k3="1" result="shadowInnerInner1"></feComposite>
            <feColorMatrix values="0 0 0 0 0.689368207   0 0 0 0 0.689368207   0 0 0 0 0.689368207  0 0 0 0.5 0" type="matrix" in="shadowInnerInner1"></feColorMatrix>
        </filter>
    </defs>
    <g id="Page-1" stroke="none" stroke-width="1" fill="none" fill-rule="evenodd">
        <ellipse id="Oval" fill="#DCDCDC" cx="29.5" cy="40" rx="29.5" ry="40"></ellipse>
        <path d="M19.9521484,37.7437708 C26.5795654,37.7437708 26.0961914,54.1342529 26.0961914,47.5068359 C26.0961914,40.8794189 24.2382568,31.2976074 17.6108398,31.2976074 C10.9834228,31.2976074 7.90527344,19.1806641 7.90527344,24.2321777 C7.90527344,29.2836914 13.3247314,37.7437708 19.9521484,37.7437708 Z" id="Oval" fill="#810202"></path>
        <path d="M43.9521484,37.7437708 C50.5795654,37.7437708 50.0961914,54.1342529 50.0961914,47.5068359 C50.0961914,40.8794189 48.2382568,31.2976074 41.6108398,31.2976074 C34.9834228,31.2976074 31.9052734,19.1806641 31.9052734,24.2321777 C31.9052734,29.2836914 37.3247314,37.7437708 43.9521484,37.7437708 Z" id="Oval" fill="#810202" transform="translate(41.004649, 36.042625) scale(-1, 1) translate(-41.004649, -36.042625) "></path>
        <circle id="Oval" fill="#000000" cx="18.5" cy="34.5" r="1.5"></circle>
        <circle id="Oval" fill="#000000" cx="39.5" cy="34.5" r="1.5"></circle>
        <g id="Rectangle">
            <use fill="#000000" fill-rule="evenodd" xlink:href="#path-1"></use>
            <use fill="black" fill-opacity="1" filter="url(#filter-2)" xlink:href="#path-1"></use>
        </g>
        <polygon id="Triangle" fill="#810202" transform="translate(41.975708, 55.953918) scale(1, -1) translate(-41.975708, -55.953918) " points="43.4134053 48.4741211 43.4134053 55.8402736 44.9560547 63.4337158 41.9169312 61.7583008 38.9953613 60.34375"></polygon>
        <path d="M17.0960363,47.642334 L17.0960363,55.0507033 L18.7203369,63.4337158 C17.6122807,62.7627133 16.5923629,62.1769386 15.6605835,61.6763916 C14.7288041,61.1758446 13.7943355,60.7117333 12.8571777,60.2840576 L17.0960363,47.642334 Z" id="Triangle" fill="#810202" transform="translate(15.788757, 55.538025) scale(-1, -1) translate(-15.788757, -55.538025) "></path>
        <polygon id="Triangle" fill="#810202" points="23.5541209 59 23.5541209 63.0288349 25.0214844 66.8327637 22 66.5876465 18.7203369 66.1483154"></polygon>
        <polygon id="Triangle" fill="#810202" points="35.4583154 59 40.0948486 66.2161865 37 66.5922852 33.9526367 66.8327637 35.4583154 62.9626555"></polygon>
        <path d="M29,53.6414795 L31.9052734,60.8869019 C30.9337807,60.733134 29.9653563,60.65625 29,60.65625 C28.0346437,60.65625 27.0693187,60.7708333 26.1040248,61 L29,53.6414795 Z" id="Triangle" fill="#810202" transform="translate(29.004649, 57.320740) scale(1, -1) translate(-29.004649, -57.320740) "></path>
        <path d="M22.7247314,8.53595054 L21.6468506,8.18816918 L20.7641602,7.72011579 L19.7857666,6.35473633 L21.2689138,6.6527494 L22.2689138,6.35473633 L23.5,6.9971308 L24.512085,6.6527494 L26.1094971,6.9971308 L25.4656982,7.29089355 L26.7877197,7.72011579 L26.5313721,6.9971308 L27.6345215,7.72011579 L28.793457,8.18816918 L28.581665,7.72011579 L29.7941895,8.53595054 L30.5195313,8.53595054 L30.2944336,8.18816918 L31.9382324,9.08249578 L32.9445801,9.35473633 L33.8262097,9.08249578 L34.6677246,9.88283448 L34.5,9.08249578 L35.8526611,9.88283448 L37.21718,9.63261492 L36.9052734,10.0733151 L38.3851318,10.6651871 L38.3851318,9.88283448 L39.3200399,10.3791527 L39.8057299,10.993115 L40.4899019,10.6552641 L40.9878703,11.3702175 L42.0476074,10.993115 L42.7175293,11.5627441 L43.7330322,12.0192297 L43.3881555,11.3702175 L44.9328434,12.0514623 L46.2689138,12.0192297 L47.4294434,12.9585964 L46.8275146,13.3547363 L48.8205566,14.1695557 L46.2689138,14.3547363 L44.5,14.1695557 L43.3881555,13.5931555 L42.3374014,13.3153695 L40.9878703,13.3153695 C40.3540505,13.1648661 39.9600037,13.0459417 39.8057299,12.9585964 C39.6514561,12.871251 39.6514561,12.7670776 39.8057299,12.646076 L38.5547279,12.3153509 L39.1304932,12.9585964 L37.4819336,12.3547363 L36.3399131,11.7298243 L34.6677246,11.7298243 L33.5532342,10.993115 L32.2689138,10.993115 C31.099259,10.8555544 30.441099,10.746245 30.2944336,10.6651871 C30.1477682,10.5841291 30.4133651,10.4764793 31.0912243,10.3422378 L29.1462402,10.0733151 L28.4070023,9.63261492 L26.5313721,9.63261492 L26.8960922,9.23317832 L25,8.87523298 L25.4656982,9.23317832 L24.0825195,8.87523298 L22.2689138,8.87523298 L22.7247314,8.53595054 Z" id="Rectangle" fill="#000000"></path>
        <path d="M18.7247314,17.5359505 L17.6468506,17.1881692 L16.7641602,16.7201158 L15.7857666,15.3547363 L17.2689138,15.6527494 L18.2689138,15.3547363 L19.5,15.9971308 L20.512085,15.6527494 L22.1094971,15.9971308 L21.4656982,16.2908936 L22.7877197,16.7201158 L22.5313721,15.9971308 L23.6345215,16.7201158 L24.793457,17.1881692 L24.581665,16.7201158 L25.7941895,17.5359505 L26.5195313,17.5359505 L26.2944336,17.1881692 L27.9382324,18.0824958 L28.9445801,18.3547363 L29.8262097,18.0824958 L30.6677246,18.8828345 L30.5,18.0824958 L31.8526611,18.8828345 L33.21718,18.6326149 L32.9052734,19.0733151 L34.3851318,19.6651871 L34.3851318,18.8828345 L35.3200399,19.3791527 L35.8057299,19.993115 L36.4899019,19.6552641 L36.9878703,20.3702175 L38.0476074,19.993115 L38.7175293,20.5627441 L39.7330322,21.0192297 L39.3881555,20.3702175 L40.9328434,21.0514623 L42.2689138,21.0192297 L43.4294434,21.9585964 L42.8275146,22.3547363 L44.8205566,23.1695557 L42.2689138,23.3547363 L40.5,23.1695557 L39.3881555,22.5931555 L38.3374014,22.3153695 L36.9878703,22.3153695 C36.3540505,22.1648661 35.9600037,22.0459417 35.8057299,21.9585964 C35.6514561,21.871251 35.6514561,21.7670776 35.8057299,21.646076 L34.5547279,21.3153509 L35.1304932,21.9585964 L33.4819336,21.3547363 L32.3399131,20.7298243 L30.6677246,20.7298243 L29.5532342,19.993115 L28.2689138,19.993115 C27.099259,19.8555544 26.441099,19.746245 26.2944336,19.6651871 C26.1477682,19.5841291 26.4133651,19.4764793 27.0912243,19.3422378 L25.1462402,19.0733151 L24.4070023,18.6326149 L22.5313721,18.6326149 L22.8960922,18.2331783 L21,17.875233 L21.4656982,18.2331783 L20.0825195,17.875233 L18.2689138,17.875233 L18.7247314,17.5359505 Z" id="Rectangle" fill="#000000"></path>
        <path d="M17.5028076,12.5167131 L14.6374512,12.5167131 C15.0255192,12.2566275 15.408291,12.0837794 15.7857666,11.9981689 C15.7857666,11.9981689 13.7165527,10.3343506 13.7165527,10.3343506 C13.7165527,10.3343506 14.7493083,10.3343506 16.8148193,10.3343506 L18.0046491,10.0198975 L20.1018066,10.3343506 L19.1915044,10.886862 L21.1809082,11.7401123 L20.5349121,10.886862 L21.7053223,11.3547363 L24.3048621,12.0755718 L23.3398438,10.886862 L26.202477,12.5167131 L31.7003174,13.0095215 L30.1475245,13.4338241 L32.4071045,14.0634766 L31.7003174,13.4338241 L34.4875999,14.4427678 L33.815918,13.7426758 L36.0610625,14.5414666 L37.9140875,14.6577016 L36.9943045,15.0255051 L37.9140875,15.2393284 L37.9140875,15.0255051 L38.9698085,15.4847534 L40.3368259,15.8025459 L40.8657227,16.4277344 L42,16.2446289 L44.8205566,17.0003055 L42.5311144,17.6772745 L42.5311144,18.3928223 L41.0776367,18.1070557 L40.085083,18.1070557 L38.5118408,17.8146973 L39.0646708,17.6120555 L37.5699192,17.2444872 L38.5118408,18.1070557 L36.9830319,17.3137264 L35.4541016,17.2444872 L36.2008073,16.9078145 L35.0506322,16.6249797 L31.4768066,16.2446289 L32.7070613,16.0486818 L29.6692688,15.3016707 L30.1475245,16.2446289 L27.0505064,14.6577016 L24.6340332,14.0634766 L25.2955322,15.0510254 L23.5185547,14.4427678 L21.4754639,14.0634766 L21,13.7426758 L18.411499,13.7426758 L19.7081299,13.0095215 L18.2480469,13.0095215 L17.5028076,12.5167131 Z" id="Rectangle" fill="#000000"></path>
        <path d="M16.5028076,22.5167131 L13.6374512,22.5167131 C14.0255192,22.2566275 14.408291,22.0837794 14.7857666,21.9981689 C14.7857666,21.9981689 12.7165527,20.3343506 12.7165527,20.3343506 C12.7165527,20.3343506 13.7493083,20.3343506 15.8148193,20.3343506 L17.0046491,20.0198975 L19.1018066,20.3343506 L18.1915044,20.886862 L20.1809082,21.7401123 L19.5349121,20.886862 L20.7053223,21.3547363 L23.3048621,22.0755718 L22.3398438,20.886862 L25.202477,22.5167131 L30.7003174,23.0095215 L29.1475245,23.4338241 L31.4071045,24.0634766 L30.7003174,23.4338241 L33.4875999,24.4427678 L32.815918,23.7426758 L35.0610625,24.5414666 L36.9140875,24.6577016 L35.9943045,25.0255051 L36.9140875,25.2393284 L36.9140875,25.0255051 L37.9698085,25.4847534 L39.3368259,25.8025459 L39.8657227,26.4277344 L41,26.2446289 L43.8205566,27.0003055 L41.5311144,27.6772745 L41.5311144,28.3928223 L40.0776367,28.1070557 L39.085083,28.1070557 L37.5118408,27.8146973 L38.0646708,27.6120555 L36.5699192,27.2444872 L37.5118408,28.1070557 L35.9830319,27.3137264 L34.4541016,27.2444872 L35.2008073,26.9078145 L34.0506322,26.6249797 L30.4768066,26.2446289 L31.7070613,26.0486818 L28.6692688,25.3016707 L29.1475245,26.2446289 L26.0505064,24.6577016 L23.6340332,24.0634766 L24.2955322,25.0510254 L22.5185547,24.4427678 L20.4754639,24.0634766 L20,23.7426758 L17.411499,23.7426758 L18.7081299,23.0095215 L17.2480469,23.0095215 L16.5028076,22.5167131 Z" id="Rectangle" fill="#000000"></path>
    </g>
</svg>