<?xml version="1.0" encoding="UTF-8"?>
<svg width="61px" height="82px" viewBox="0 0 61 82" version="1.1" xmlns="http://www.w3.org/2000/svg" xmlns:xlink="http://www.w3.org/1999/xlink">
    <title>Page 1</title>
    <g id="Page-1" stroke="none" stroke-width="1" fill="none" fill-rule="evenodd">
        <ellipse id="Oval" stroke="#000000" fill="#DCDCDC" cx="30.5" cy="41" rx="29.5" ry="40"></ellipse>
        <path d="M20.9521484,38.7437708 C27.5795654,38.7437708 27.0961914,55.1342529 27.0961914,48.5068359 C27.0961914,41.8794189 25.2382568,32.2976074 18.6108398,32.2976074 C11.9834228,32.2976074 6.90820312,22.1736454 7.63500977,24.0003055 C8.36181641,25.8269657 14.3247314,38.7437708 20.9521484,38.7437708 Z" id="Oval" fill="#810202"></path>
        <path d="M46.9521484,38.7437708 C53.5795654,38.7437708 53.0961914,55.1342529 53.0961914,48.5068359 C53.0961914,41.8794189 51.2382568,32.2976074 44.6108398,32.2976074 C37.9834228,32.2976074 32.9082031,22.1736454 33.6350098,24.0003055 C34.3618164,25.8269657 40.3247314,38.7437708 46.9521484,38.7437708 Z" id="Oval" fill="#810202" transform="translate(43.334834, 36.932385) scale(-1, 1) translate(-43.334834, -36.932385) "></path>
        <circle id="Oval" fill="#000000" cx="19.5" cy="35.5" r="1.5"></circle>
        <circle id="Oval" fill="#000000" cx="40.5" cy="35.5" r="1.5"></circle>
        <path d="M13.0841102,25.6265576 L11.1536742,25.1048856 L9.57281539,24.4028055 L7.82055664,22.3547363 L10.4768063,22.8017559 L12.2677612,22.3547363 L14.4725812,23.318328 L16.2851797,22.8017559 L19.1460728,23.318328 L17.9930581,23.7589722 L20.360739,24.4028055 L19.9016319,23.318328 L21.8773228,24.4028055 L23.9529241,25.1048856 L23.5736142,24.4028055 L25.7451908,25.6265576 L27.0442452,25.6265576 L26.6411055,25.1048856 L29.5850751,26.4463755 L31.3873983,26.8547363 L32.9663573,26.4463755 L34.4734725,27.6468836 L34.1730853,26.4463755 L36.5956404,27.6468836 L39.0394321,27.2715542 L38.4808216,27.9326044 L41.1311813,28.8204124 L41.1311813,27.6468836 L42.8055595,28.3913608 L43.6754083,29.3123043 L44.9007296,28.805528 L45.7925684,29.8779581 L47.6905099,29.3123043 L48.8903098,30.166748 L50.7090298,30.8514765 L50.0913712,29.8779581 L52.8578375,30.8998252 L55.2506793,30.8514765 L57.3291355,32.2605264 L56.2511083,32.8547363 L59.8205566,34.0769653 L55.2506793,34.3547363 L52.0826345,34.0769653 L50.0913712,33.212365 L48.2095179,32.795686 L45.7925684,32.795686 C44.6574258,32.5699309 43.9517058,32.3915444 43.6754083,32.2605264 C43.3991109,32.1295083 43.3991109,31.9732482 43.6754083,31.7917459 L41.4349202,31.2956582 L42.4660898,32.2605264 L39.5135939,31.3547363 L37.4682867,30.4173682 L34.4734725,30.4173682 L32.4774705,29.3123043 L30.1773104,29.3123043 C28.0825115,29.1059634 26.9037765,28.9419994 26.6411055,28.8204124 C26.3784344,28.6988255 26.8541065,28.5373508 28.0681216,28.3359886 L24.5847429,27.9326044 L23.2608012,27.2715542 L19.9016319,27.2715542 L20.5548292,26.6723993 L17.1590136,26.1354813 L17.9930581,26.6723993 L15.5158474,26.1354813 L12.2677612,26.1354813 L13.0841102,25.6265576 Z" id="Rectangle" fill="#000000" transform="translate(33.820557, 28.354736) rotate(10.000000) translate(-33.820557, -28.354736) "></path>
        <path d="M7.18453821,50.7020026 L5.17985465,50.3542212 L3.53819362,49.8861678 L1.7185403,48.5207884 L4.47695345,48.8188015 L6.33679124,48.5207884 L8.62641197,49.1631829 L10.5087258,48.8188015 L13.4796533,49.1631829 L12.2822919,49.4569456 L14.7410374,49.8861678 L14.2642723,49.1631829 L16.3159513,49.8861678 L18.4713834,50.3542212 L18.0774847,49.8861678 L20.3325834,50.7020026 L21.6816015,50.7020026 L21.2629564,50.3542212 L24.3201556,51.2485478 L26.191799,51.5207884 L27.8314871,51.2485478 L29.3965683,52.0488865 L29.0846278,51.2485478 L31.6003581,52.0488865 L34.1381418,51.798667 L33.5580462,52.2393671 L36.3103428,52.8312391 L36.3103428,52.0488865 L38.0491202,52.5452047 L38.9524248,53.159167 L40.2248737,52.8213162 L41.1510141,53.5362696 L43.1219533,53.159167 L44.3678994,53.7287962 L46.2565701,54.1852818 L45.6151554,53.5362696 L48.4880243,54.2175143 L50.9728984,54.1852818 L53.1312952,55.1246484 L52.0118055,55.5207884 L55.7185403,56.3356077 L50.9728984,56.5207884 L47.6830058,56.3356077 L45.6151554,55.7592075 L43.6609231,55.4814215 L41.1510141,55.4814215 C39.9722122,55.3309181 39.2393491,55.2119938 38.9524248,55.1246484 C38.6655005,55.0373031 38.6655005,54.9331296 38.9524248,54.8121281 L36.625764,54.4814029 L37.696594,55.1246484 L34.6305406,54.5207884 L32.5065676,53.8958763 L29.3965683,53.8958763 L27.323797,53.159167 L24.9351692,53.159167 C22.7598011,53.0216064 21.5357302,52.9122971 21.2629564,52.8312391 C20.9901826,52.7501811 21.4841497,52.6425314 22.7448578,52.5082899 L19.127503,52.2393671 L17.7526404,51.798667 L14.2642723,51.798667 L14.9425926,51.3992304 L11.4161687,51.041285 L12.2822919,51.3992304 L9.70980382,51.041285 L6.33679124,51.041285 L7.18453821,50.7020026 Z" id="Rectangle" fill="#000000" transform="translate(28.718540, 52.520788) rotate(10.000000) translate(-28.718540, -52.520788) "></path>
        <path d="M9.61458433,40.0389036 L4.45576422,40.0389036 C5.15444621,39.790402 5.8435929,39.6252525 6.52320429,39.543455 C6.52320429,39.543455 2.79776827,37.9537421 2.79776827,37.9537421 C2.79776827,37.9537421 4.657153,37.9537421 8.37592246,37.9537421 L10.5181054,37.6532945 L14.2938515,37.9537421 L12.6549331,38.4816451 L16.2366782,39.2968921 L15.0736195,38.4816451 L17.1808392,38.9286805 L21.86108,39.6174104 L20.1236501,38.4816451 L25.2775674,40.0389036 L35.1759413,40.5097626 L32.3802755,40.915167 L36.4484488,41.5167752 L35.1759413,40.915167 L40.1941962,41.879173 L38.9848925,41.2102626 L43.027076,41.9734758 L46.3632832,42.0845338 L44.7072955,42.4359555 L46.3632832,42.6402553 L46.3632832,42.4359555 L48.2640152,42.8747492 L50.7252089,43.1783875 L51.6774405,43.7757304 L53.7196062,43.6007804 L58.7977683,44.3227996 L54.6758306,44.9696168 L54.6758306,45.6532945 L52.058973,45.3802558 L50.271968,45.3802558 L47.439485,45.1009189 L48.4348063,44.9073026 L45.7436388,44.5561056 L47.439485,45.3802558 L44.6870003,44.6222609 L41.9342967,44.5561056 L43.2786742,44.2344281 L41.207886,43.9641906 L34.77353,43.6007804 L36.9884944,43.4135606 L31.5192185,42.6998209 L32.3802755,43.6007804 L26.8043691,42.0845338 L22.4537234,41.5167752 L23.6446938,42.4603392 L20.4454033,41.879173 L16.7669995,41.5167752 L15.910969,41.2102626 L11.2506026,41.2102626 L13.5850715,40.5097626 L10.9563215,40.5097626 L9.61458433,40.0389036 Z" id="Rectangle" fill="#000000" transform="translate(30.797768, 41.653295) rotate(6.000000) translate(-30.797768, -41.653295) "></path>
        <path d="M11.4200841,61.7784313 L7.18248189,61.7784313 C7.75639923,61.5299297 8.32248402,61.3647802 8.88073623,61.2829828 C8.88073623,61.2829828 5.82055664,59.6932698 5.82055664,59.6932698 C5.82055664,59.6932698 7.34790838,59.6932698 10.4026119,59.6932698 L12.1622622,59.3928223 L15.2637679,59.6932698 L13.9175135,60.2211728 L16.8596612,61.0364198 L15.9042916,60.2211728 L17.635222,60.6682082 L21.4797056,61.3569382 L20.052531,60.2211728 L24.2861059,61.7784313 L32.4169131,62.2492903 L30.1204733,62.6546948 L33.4621871,63.2563029 L32.4169131,62.6546948 L36.539051,63.6187007 L35.5456944,62.9497904 L38.8660594,63.7130036 L41.6065153,63.8240615 L40.2462397,64.1754833 L41.6065153,64.379783 L41.6065153,64.1754833 L43.1678309,64.6142769 L45.1895257,64.9179152 L45.971716,65.5152582 L47.6492093,65.3403081 L51.8205566,66.0623273 L48.4346793,66.7091445 L48.4346793,67.3928223 L46.2851176,67.1197835 L44.8172207,67.1197835 L42.4905383,66.8404466 L43.3081236,66.6468303 L41.0975217,66.2956334 L42.4905383,67.1197835 L40.2295686,66.3617887 L37.9684193,66.2956334 L39.0727293,65.9739559 L37.3717248,65.7037183 L32.0863609,65.3403081 L33.9057959,65.1530883 L29.4131764,64.4393486 L30.1204733,65.3403081 L25.5402645,63.8240615 L21.9665198,63.2563029 L22.9448169,64.1998669 L20.3168283,63.6187007 L17.2952823,63.2563029 L16.5921144,62.9497904 L12.7639563,62.9497904 L14.6815557,62.2492903 L12.5222254,62.2492903 L11.4200841,61.7784313 Z" id="Rectangle" fill="#000000" transform="translate(28.820557, 63.392822) rotate(3.000000) translate(-28.820557, -63.392822) "></path>
    </g>
</svg>